<?xml version="1.0" encoding="utf-8"?>
<!-- Generator: Adobe Illustrator 27.3.1, SVG Export Plug-In . SVG Version: 6.00 Build 0)  -->
<svg version="1.1" id="Layer_2_00000103954606276073469460000016790738759829208973_"
	 xmlns="http://www.w3.org/2000/svg" xmlns:xlink="http://www.w3.org/1999/xlink" x="0px" y="0px" viewBox="0 0 504.8 75"
	 style="enable-background:new 0 0 504.8 75;" xml:space="preserve">
<style type="text/css">
	.st0{fill:#172DEB;}
	.st1{fill:#3F48E8;}
	.st2{fill:#FFFFFF;}
</style>
<g id="Layer_1-2">
	<g>
		<g>
			<path class="st0" d="M0,31.7v-18C0,6.3,6,0.2,13.5,0.2h36.4v4.5c0,7.4-6,13.5-13.5,13.5H17.9v0h-4.5C6,18.2,0,24.3,0,31.7z"/>
			<path class="st1" d="M0,50.1V31.7c0-7.4,6-13.5,13.5-13.5H18v18.4c0,7.4-6,13.5-13.5,13.5H0z"/>
			<path class="st0" d="M114.6,43.6v18c0,7.4-6,13.5-13.5,13.5H64.7v-4.5c0-7.4,6-13.5,13.5-13.5h18.4v0h4.5
				C108.6,57.1,114.6,51,114.6,43.6L114.6,43.6z"/>
			<path class="st1" d="M114.6,25.2v18.4c0,7.4-6,13.5-13.5,13.5h-4.5V38.6c0-7.4,6-13.5,13.5-13.5
				C110.1,25.2,114.6,25.2,114.6,25.2z"/>
			<path class="st0" d="M98.3,10.2L35,73.5c-1,1-2.3,1.5-3.7,1.5h-9.2c-5.2,0-7.8-6.3-4.1-9.9L81.3,1.8c1-1,2.3-1.5,3.7-1.5h9.2
				C99.4,0.2,102,6.5,98.3,10.2z"/>
		</g>
		<g>
			<path class="st2" d="M188.9,66.6c-5.9,5.8-12.2,8.1-19.8,8.1c-14.9,0-27.2-8.9-27.2-27.2s12.4-27.1,27.2-27.1
				c7.3,0,12.9,2.1,18.5,7.6l-8,8.4c-3-2.7-6.8-4.1-10.3-4.1c-8.5,0-14.8,6.2-14.8,15.2c0,9.8,6.7,15,14.6,15
				c4.1,0,8.1-1.1,11.2-4.3L188.9,66.6L188.9,66.6z"/>
			<path class="st2" d="M246.5,47.6c0,14.8-10.1,26.7-26.7,26.7s-26.6-12-26.6-26.7s10.2-26.7,26.5-26.7S246.5,32.9,246.5,47.6
				L246.5,47.6z M205.8,47.6c0,7.8,4.7,15.1,13.9,15.1s13.9-7.3,13.9-15.1s-5.4-15.2-13.9-15.2C210.6,32.4,205.8,39.9,205.8,47.6z"
				/>
			<path class="st2" d="M308.5,0.4v72.7h-11.9l-0.8-7.1c-4,6.1-10.3,8.2-16.5,8.2c-15.1,0-26.4-10-26.4-26.8
				c0-17.7,11.1-26.8,26.1-26.8c5.4,0,13.8,2.9,16.9,8.2V0.4H308.5L308.5,0.4z M265.5,47.4c0,8.9,6.5,15.1,14.6,15.1
				s14.9-5.8,14.9-15.1s-6.9-15-14.9-15S265.5,38.2,265.5,47.4z"/>
			<path class="st2" d="M332.2,0.4v28.4c3-5.3,11.4-8.2,16.9-8.2c15,0,26.1,9.1,26.1,26.8s-11.3,26.8-26.4,26.8
				c-6.2,0-12.6-2.1-16.5-8.2l-0.8,7.1h-11.9V0.4H332.2L332.2,0.4z M333,47.4c0,9.3,6.9,15.1,14.9,15.1s14.6-6.1,14.6-15.1
				s-6.5-15-14.6-15S333,38.5,333,47.4z"/>
			<path class="st2" d="M396.2,21.9l0.9,5.9c4-6.3,9.3-7.3,14.5-7.3s10.4,2.1,13.2,4.9l-5.7,11c-2.6-2.2-5-3.3-9.1-3.3
				c-6.7,0-12.8,3.5-12.8,13v27h-12.7V21.9H396.2L396.2,21.9z"/>
			<path class="st2" d="M443.4,7.4c0,9.9-15,9.9-15,0S443.4-2.5,443.4,7.4z M429.6,21.7v51.5h12.7V21.7H429.6z"/>
			<path class="st2" d="M488.6,21.9h15.2v0.4l-16.9,24.9l17.9,25.7v0.3h-15.2L478.5,56l-11.1,17.2h-15.2v-0.3l17.9-25.7l-16.9-24.9
				v-0.4h15.2l10.1,17.4L488.6,21.9z"/>
		</g>
	</g>
</g>
</svg>
